<svg width="212" height="60" viewBox="0 0 212 73" fill="none" xmlns="http://www.w3.org/2000/svg">
<path d="M23.3783 24H29.6983C29.9917 24 30.245 24.1067 30.4583 24.32C30.6717 24.5333 30.7783 24.7867 30.7783 25.08V50.92C30.7783 51.2133 30.6717 51.4667 30.4583 51.68C30.245 51.8933 29.9917 52 29.6983 52H22.4583C22.165 52 21.9117 51.8933 21.6983 51.68C21.485 51.4667 21.3783 51.2133 21.3783 50.92V39.96L18.7383 44.28C18.3117 44.9467 17.8183 45.28 17.2583 45.28H14.4583C13.8983 45.28 13.405 44.9467 12.9783 44.28L10.3383 39.96V50.92C10.3383 51.2133 10.2317 51.4667 10.0183 51.68C9.80499 51.8933 9.55165 52 9.25832 52H2.01832C1.72498 52 1.47165 51.8933 1.25832 51.68C1.04498 51.4667 0.938318 51.2133 0.938318 50.92V25.08C0.938318 24.7867 1.04498 24.5333 1.25832 24.32C1.47165 24.1067 1.72498 24 2.01832 24H8.33832C9.08499 24 9.65832 24.36 10.0583 25.08L15.8583 34.68L21.6583 25.08C22.0583 24.36 22.6317 24 23.3783 24ZM34.1774 31.2H40.9374C41.5507 31.2 41.9774 31.52 42.2174 32.16L45.4974 41.28L48.8974 32.16C49.164 31.52 49.6174 31.2 50.2574 31.2H56.9374C57.1774 31.2 57.3907 31.2933 57.5774 31.48C57.764 31.64 57.8574 31.8133 57.8574 32C57.8574 32.1867 57.844 32.3333 57.8174 32.44L46.5374 58.64C46.2707 59.28 45.804 59.6 45.1374 59.6H38.5774C38.3374 59.6 38.124 59.52 37.9374 59.36C37.7774 59.2 37.6974 59 37.6974 58.76C37.6974 58.5467 37.7107 58.4133 37.7374 58.36L40.9374 50.68L33.2174 32.44C33.1907 32.36 33.1774 32.2667 33.1774 32.16C33.284 31.52 33.6174 31.2 34.1774 31.2Z" fill="black"/>
<path d="M60.9214 42.88H67.8814C68.1748 42.88 68.4281 42.9867 68.6414 43.2C68.8548 43.4133 68.9614 43.6667 68.9614 43.96V50.92C68.9614 51.2133 68.8548 51.4667 68.6414 51.68C68.4281 51.8933 68.1748 52 67.8814 52H60.9214C60.6281 52 60.3748 51.8933 60.1614 51.68C59.9481 51.4667 59.8414 51.2133 59.8414 50.92V43.96C59.8414 43.6667 59.9481 43.4133 60.1614 43.2C60.3748 42.9867 60.6281 42.88 60.9214 42.88Z" fill="#FF2E00"/>
<path d="M74.2277 24H86.1477C89.9877 24 92.9877 24.8267 95.1477 26.48C97.3077 28.1333 98.3877 30.5733 98.3877 33.8C98.3877 37.0267 97.3077 39.4133 95.1477 40.96C93.0144 42.5067 90.0144 43.28 86.1477 43.28H83.5477V50.92C83.5477 51.2133 83.441 51.4667 83.2277 51.68C83.0144 51.8933 82.761 52 82.4677 52H74.2277C73.9344 52 73.681 51.8933 73.4677 51.68C73.2544 51.4667 73.1477 51.2133 73.1477 50.92V25.08C73.1477 24.7867 73.2544 24.5333 73.4677 24.32C73.681 24.1067 73.9344 24 74.2277 24ZM83.3477 31.44V35.88H86.1477C86.6277 35.88 87.0544 35.7067 87.4277 35.36C87.801 34.9867 87.9877 34.4667 87.9877 33.8C87.9877 33.1333 87.841 32.5733 87.5477 32.12C87.2544 31.6667 86.7877 31.44 86.1477 31.44H83.3477ZM100.171 42.96V40.24C100.171 37.2 101.251 34.8667 103.411 33.24C105.571 31.6133 108.358 30.8 111.771 30.8C115.184 30.8 117.971 31.6133 120.131 33.24C122.291 34.8667 123.371 37.2 123.371 40.24V42.96C123.371 46.0267 122.331 48.3733 120.251 50C118.171 51.6 115.344 52.4 111.771 52.4C108.198 52.4 105.371 51.6 103.291 50C101.211 48.3733 100.171 46.0267 100.171 42.96ZM113.571 43.28V39.92C113.571 38.9067 113.438 38.2 113.171 37.8C112.904 37.4 112.438 37.2 111.771 37.2C111.104 37.2 110.638 37.4 110.371 37.8C110.104 38.2 109.971 38.9067 109.971 39.92V43.28C109.971 44.3467 110.104 45.0667 110.371 45.44C110.638 45.8133 111.104 46 111.771 46C112.438 46 112.904 45.8 113.171 45.4C113.438 45 113.571 44.2933 113.571 43.28ZM134.747 32.28V33.68C136.613 32.0267 138.693 31.2 140.987 31.2H142.907C143.2 31.2 143.453 31.3067 143.667 31.52C143.88 31.7333 143.987 31.9867 143.987 32.28V38.52C143.987 38.8133 143.88 39.0667 143.667 39.28C143.453 39.4933 143.2 39.6 142.907 39.6H137.747C137.027 39.6 136.453 39.7733 136.027 40.12C135.627 40.44 135.4 40.88 135.347 41.44V50.92C135.347 51.2133 135.24 51.4667 135.027 51.68C134.813 51.8933 134.56 52 134.267 52H126.667C126.373 52 126.12 51.8933 125.907 51.68C125.693 51.4667 125.587 51.2133 125.587 50.92V32.28C125.587 31.9867 125.693 31.7333 125.907 31.52C126.12 31.3067 126.373 31.2 126.667 31.2H133.667C133.96 31.2 134.213 31.3067 134.427 31.52C134.64 31.7333 134.747 31.9867 134.747 32.28ZM158.398 38.2V42.6C158.398 43.9333 158.971 44.6 160.118 44.6H163.758C164.051 44.6 164.304 44.7067 164.518 44.92C164.731 45.1333 164.838 45.3867 164.838 45.68V50.92C164.838 51.2133 164.731 51.4667 164.518 51.68C164.304 51.8933 164.051 52 163.758 52H159.238C152.571 52 149.238 49.1333 149.238 43.4V38.2H146.078C145.784 38.2 145.531 38.0933 145.318 37.88C145.104 37.6667 144.998 37.4133 144.998 37.12V32.28C144.998 31.9867 145.104 31.7333 145.318 31.52C145.531 31.3067 145.784 31.2 146.078 31.2H149.238V24.68C149.238 24.3867 149.344 24.1333 149.558 23.92C149.771 23.7067 150.024 23.6 150.318 23.6H157.318C157.611 23.6 157.864 23.7067 158.078 23.92C158.291 24.1333 158.398 24.3867 158.398 24.68V31.2H163.438C163.731 31.2 163.984 31.3067 164.198 31.52C164.411 31.7333 164.518 31.9867 164.518 32.28V37.12C164.518 37.4133 164.411 37.6667 164.198 37.88C163.984 38.0933 163.731 38.2 163.438 38.2H158.398ZM178.448 30.72V31.2H182.968C183.261 31.2 183.514 31.3067 183.728 31.52C183.941 31.7333 184.048 31.9867 184.048 32.28V37.12C184.048 37.4133 183.941 37.6667 183.728 37.88C183.514 38.0933 183.261 38.2 182.968 38.2H178.448V50.92C178.448 51.2133 178.341 51.4667 178.128 51.68C177.914 51.8933 177.661 52 177.368 52H170.368C170.074 52 169.821 51.8933 169.608 51.68C169.394 51.4667 169.288 51.2133 169.288 50.92V38.2H166.528C166.234 38.2 165.981 38.0933 165.768 37.88C165.554 37.6667 165.448 37.4133 165.448 37.12V32.28C165.448 31.9867 165.554 31.7333 165.768 31.52C165.981 31.3067 166.234 31.2 166.528 31.2H169.288V30.52C169.288 27.48 170.208 25.3733 172.048 24.2C173.888 23 176.434 22.4 179.688 22.4H183.408C183.701 22.4 183.954 22.5067 184.168 22.72C184.381 22.9333 184.488 23.1867 184.488 23.48V28.32C184.488 28.6133 184.381 28.8667 184.168 29.08C183.954 29.2933 183.701 29.4 183.408 29.4H180.168C179.021 29.4 178.448 29.84 178.448 30.72ZM186.077 31.2H192.837C193.451 31.2 193.877 31.52 194.117 32.16L197.397 41.28L200.797 32.16C201.064 31.52 201.517 31.2 202.157 31.2H208.837C209.077 31.2 209.291 31.2933 209.477 31.48C209.664 31.64 209.757 31.8133 209.757 32C209.757 32.1867 209.744 32.3333 209.717 32.44L198.437 58.64C198.171 59.28 197.704 59.6 197.037 59.6H190.477C190.237 59.6 190.024 59.52 189.837 59.36C189.677 59.2 189.597 59 189.597 58.76C189.597 58.5467 189.611 58.4133 189.637 58.36L192.837 50.68L185.117 32.44C185.091 32.36 185.077 32.2667 185.077 32.16C185.184 31.52 185.517 31.2 186.077 31.2Z" fill="#A0F3D0"/>
</svg>
