<svg width="195" height="60" viewBox="0 0 273 33" fill="none" xmlns="http://www.w3.org/2000/svg">
<path d="M42.2 4L36.68 32H28.08L30.56 19.24L22.68 29.48H18.52L14.2 19.4L11.68 32H3.08L8.68 4H16.36L22.44 18.88L34.16 4H42.2ZM61.8841 21.84L59.8841 32H50.4441L52.4841 21.72L45.4841 4H54.9641L58.7641 13.68L66.5641 4H76.0441L61.8841 21.84Z" fill="#222222"/>
<path d="M42.2 4L43.1811 4.19342L43.4164 3H42.2V4ZM36.68 32V33H37.5021L37.6611 32.1934L36.68 32ZM28.08 32L27.0984 31.8092L26.8669 33H28.08V32ZM30.56 19.24L31.5416 19.4308L29.7675 18.6301L30.56 19.24ZM22.68 29.48V30.48H23.1723L23.4725 30.0899L22.68 29.48ZM18.52 29.48L17.6009 29.8739L17.8606 30.48H18.52V29.48ZM14.2 19.4L15.1191 19.0061L13.8509 16.0467L13.2194 19.2039L14.2 19.4ZM11.68 32V33H12.4998L12.6606 32.1961L11.68 32ZM3.08 32L2.09942 31.8039L1.8602 33H3.08V32ZM8.68 4V3H7.8602L7.69942 3.80388L8.68 4ZM16.36 4L17.2857 3.62175L17.0317 3H16.36V4ZM22.44 18.88L21.5143 19.2582L22.1635 20.8472L23.2256 19.4988L22.44 18.88ZM34.16 4V3H33.6747L33.3744 3.38124L34.16 4ZM41.2189 3.80658L35.6989 31.8066L37.6611 32.1934L43.1811 4.19342L41.2189 3.80658ZM36.68 31H28.08V33H36.68V31ZM29.0616 32.1908L31.5416 19.4308L29.5784 19.0492L27.0984 31.8092L29.0616 32.1908ZM29.7675 18.6301L21.8875 28.8701L23.4725 30.0899L31.3525 19.8499L29.7675 18.6301ZM22.68 28.48H18.52V30.48H22.68V28.48ZM19.4391 29.0861L15.1191 19.0061L13.2809 19.7939L17.6009 29.8739L19.4391 29.0861ZM13.2194 19.2039L10.6994 31.8039L12.6606 32.1961L15.1806 19.5961L13.2194 19.2039ZM11.68 31H3.08V33H11.68V31ZM4.06058 32.1961L9.66058 4.19611L7.69942 3.80388L2.09942 31.8039L4.06058 32.1961ZM8.68 5H16.36V3H8.68V5ZM15.4343 4.37824L21.5143 19.2582L23.3657 18.5018L17.2857 3.62175L15.4343 4.37824ZM23.2256 19.4988L34.9456 4.61875L33.3744 3.38124L21.6544 18.2612L23.2256 19.4988ZM34.16 5H42.2V3H34.16V5ZM61.8841 21.84L61.1008 21.2183L60.9498 21.4085L60.9029 21.6469L61.8841 21.84ZM59.8841 32V33H60.7064L60.8652 32.1931L59.8841 32ZM50.4441 32L49.4632 31.8054L49.2261 33H50.4441V32ZM52.4841 21.72L53.4649 21.9146L53.5222 21.6261L53.4141 21.3526L52.4841 21.72ZM45.4841 4V3H44.0138L44.554 4.3674L45.4841 4ZM54.9641 4L55.8949 3.63458L55.6458 3H54.9641V4ZM58.7641 13.68L57.8332 14.0454L58.4624 15.6482L59.5427 14.3074L58.7641 13.68ZM66.5641 4V3H66.0856L65.7854 3.37256L66.5641 4ZM76.0441 4L76.8273 4.62169L78.1145 3H76.0441V4ZM60.9029 21.6469L58.9029 31.8069L60.8652 32.1931L62.8652 22.0331L60.9029 21.6469ZM59.8841 31H50.4441V33H59.8841V31ZM51.4249 32.1946L53.4649 21.9146L51.5032 21.5254L49.4632 31.8054L51.4249 32.1946ZM53.4141 21.3526L46.4141 3.63259L44.554 4.3674L51.554 22.0874L53.4141 21.3526ZM45.4841 5H54.9641V3H45.4841V5ZM54.0332 4.36541L57.8332 14.0454L59.6949 13.3146L55.8949 3.63458L54.0332 4.36541ZM59.5427 14.3074L67.3427 4.62744L65.7854 3.37256L57.9854 13.0526L59.5427 14.3074ZM66.5641 5H76.0441V3H66.5641V5ZM75.2608 3.37831L61.1008 21.2183L62.6673 22.4617L76.8273 4.62169L75.2608 3.37831Z" fill="#222222"/>
<path d="M103.12 4C106.853 4 109.747 4.81333 111.8 6.44C113.853 8.06667 114.88 10.3467 114.88 13.28C114.88 15.6267 114.293 17.6933 113.12 19.48C111.973 21.2667 110.32 22.6533 108.16 23.64C106.027 24.6267 103.547 25.12 100.72 25.12H95.88L94.52 32H85.08L90.68 4H103.12ZM101.2 17.84C102.507 17.84 103.52 17.52 104.24 16.88C104.96 16.2133 105.32 15.2933 105.32 14.12C105.32 12.2267 104.147 11.28 101.8 11.28H98.64L97.32 17.84H101.2ZM132.567 32.64C129.713 32.64 127.207 32.12 125.047 31.08C122.913 30.0133 121.26 28.5333 120.087 26.64C118.94 24.7467 118.367 22.5733 118.367 20.12C118.367 16.8667 119.113 13.9733 120.607 11.44C122.127 8.88 124.22 6.89333 126.887 5.48C129.58 4.06667 132.62 3.36 136.007 3.36C138.86 3.36 141.353 3.89333 143.487 4.96C145.647 6 147.3 7.46667 148.447 9.36C149.62 11.2533 150.207 13.4267 150.207 15.88C150.207 19.1333 149.447 22.04 147.927 24.6C146.433 27.1333 144.34 29.1067 141.647 30.52C138.98 31.9333 135.953 32.64 132.567 32.64ZM133.367 25C134.86 25 136.153 24.6133 137.247 23.84C138.367 23.0667 139.22 22.0267 139.807 20.72C140.393 19.4133 140.687 17.9867 140.687 16.44C140.687 14.7867 140.193 13.4667 139.207 12.48C138.247 11.4933 136.913 11 135.207 11C133.713 11 132.407 11.3867 131.287 12.16C130.193 12.9333 129.353 13.9733 128.767 15.28C128.18 16.5867 127.887 18.0133 127.887 19.56C127.887 21.2133 128.367 22.5333 129.327 23.52C130.313 24.5067 131.66 25 133.367 25ZM182.513 13.2C182.513 15.68 181.846 17.8533 180.513 19.72C179.206 21.56 177.353 22.9333 174.953 23.84L179.633 32H169.833L165.873 24.96H163.553L162.153 32H152.713L158.313 4H170.873C174.553 4 177.406 4.81333 179.433 6.44C181.486 8.04 182.513 10.2933 182.513 13.2ZM172.953 14.12C172.953 12.2267 171.779 11.28 169.433 11.28H166.273L164.953 17.84H168.833C170.139 17.84 171.153 17.52 171.873 16.88C172.593 16.2133 172.953 15.2933 172.953 14.12ZM194.327 11.32H186.127L187.607 4H213.447L211.967 11.32H203.767L199.647 32H190.207L194.327 11.32ZM225.899 11.12L224.939 15.92H236.619L235.179 23.04H223.539L221.739 32H212.299L217.899 4H240.659L239.219 11.12H225.899ZM258.681 21.84L256.681 32H247.241L249.281 21.72L242.281 4H251.761L255.561 13.68L263.361 4H272.841L258.681 21.84Z" fill="#48F6AC"/>
<path d="M100.12 0.999998C103.853 0.999998 106.747 1.81333 108.8 3.44C110.853 5.06667 111.88 7.34667 111.88 10.28C111.88 12.6267 111.293 14.6933 110.12 16.48C108.973 18.2667 107.32 19.6533 105.16 20.64C103.027 21.6267 100.547 22.12 97.72 22.12H92.88L91.52 29H82.08L87.68 0.999998H100.12ZM98.2 14.84C99.5067 14.84 100.52 14.52 101.24 13.88C101.96 13.2133 102.32 12.2933 102.32 11.12C102.32 9.22667 101.147 8.28 98.8 8.28H95.64L94.32 14.84H98.2ZM129.567 29.64C126.713 29.64 124.207 29.12 122.047 28.08C119.913 27.0133 118.26 25.5333 117.087 23.64C115.94 21.7467 115.367 19.5733 115.367 17.12C115.367 13.8667 116.113 10.9733 117.607 8.44C119.127 5.88 121.22 3.89333 123.887 2.48C126.58 1.06667 129.62 0.359999 133.007 0.359999C135.86 0.359999 138.353 0.893332 140.487 1.96C142.647 3 144.3 4.46667 145.447 6.36C146.62 8.25333 147.207 10.4267 147.207 12.88C147.207 16.1333 146.447 19.04 144.927 21.6C143.433 24.1333 141.34 26.1067 138.647 27.52C135.98 28.9333 132.953 29.64 129.567 29.64ZM130.367 22C131.86 22 133.153 21.6133 134.247 20.84C135.367 20.0667 136.22 19.0267 136.807 17.72C137.393 16.4133 137.687 14.9867 137.687 13.44C137.687 11.7867 137.193 10.4667 136.207 9.48C135.247 8.49333 133.913 8 132.207 8C130.713 8 129.407 8.38667 128.287 9.16C127.193 9.93333 126.353 10.9733 125.767 12.28C125.18 13.5867 124.887 15.0133 124.887 16.56C124.887 18.2133 125.367 19.5333 126.327 20.52C127.313 21.5067 128.66 22 130.367 22ZM179.513 10.2C179.513 12.68 178.846 14.8533 177.513 16.72C176.206 18.56 174.353 19.9333 171.953 20.84L176.633 29H166.833L162.873 21.96H160.553L159.153 29H149.713L155.313 0.999998H167.873C171.553 0.999998 174.406 1.81333 176.433 3.44C178.486 5.04 179.513 7.29333 179.513 10.2ZM169.953 11.12C169.953 9.22667 168.779 8.28 166.433 8.28H163.273L161.953 14.84H165.833C167.139 14.84 168.153 14.52 168.873 13.88C169.593 13.2133 169.953 12.2933 169.953 11.12ZM191.327 8.32H183.127L184.607 0.999998H210.447L208.967 8.32H200.767L196.647 29H187.207L191.327 8.32ZM222.899 8.12L221.939 12.92H233.619L232.179 20.04H220.539L218.739 29H209.299L214.899 0.999998H237.659L236.219 8.12H222.899ZM255.681 18.84L253.681 29H244.241L246.281 18.72L239.281 0.999998H248.761L252.561 10.68L260.361 0.999998H269.841L255.681 18.84Z" fill="#A0F3D0"/>
<path d="M39.2 0.999998L33.68 29H25.08L27.56 16.24L19.68 26.48H15.52L11.2 16.4L8.68 29H0.08L5.68 0.999998H13.36L19.44 15.88L31.16 0.999998H39.2ZM58.8841 18.84L56.8841 29H47.4441L49.4841 18.72L42.4841 0.999998H51.9641L55.7641 10.68L63.5641 0.999998H73.0441L58.8841 18.84Z" fill="white"/>
<path d="M39.2 0.999998L40.1811 1.19342L40.4164 -1.90735e-06H39.2V0.999998ZM33.68 29V30H34.5021L34.6611 29.1934L33.68 29ZM25.08 29L24.0984 28.8092L23.8669 30H25.08V29ZM27.56 16.24L28.5416 16.4308L26.7675 15.6301L27.56 16.24ZM19.68 26.48V27.48H20.1723L20.4725 27.0899L19.68 26.48ZM15.52 26.48L14.6009 26.8739L14.8606 27.48H15.52V26.48ZM11.2 16.4L12.1191 16.0061L10.8509 13.0467L10.2194 16.2039L11.2 16.4ZM8.68 29V30H9.4998L9.66058 29.1961L8.68 29ZM0.08 29L-0.900581 28.8039L-1.1398 30H0.08V29ZM5.68 0.999998V-1.90735e-06H4.8602L4.69942 0.803882L5.68 0.999998ZM13.36 0.999998L14.2857 0.621753L14.0317 -1.90735e-06H13.36V0.999998ZM19.44 15.88L18.5143 16.2582L19.1635 17.8472L20.2256 16.4988L19.44 15.88ZM31.16 0.999998V-1.90735e-06H30.6747L30.3744 0.381244L31.16 0.999998ZM38.2189 0.806578L32.6989 28.8066L34.6611 29.1934L40.1811 1.19342L38.2189 0.806578ZM33.68 28H25.08V30H33.68V28ZM26.0616 29.1908L28.5416 16.4308L26.5784 16.0492L24.0984 28.8092L26.0616 29.1908ZM26.7675 15.6301L18.8875 25.8701L20.4725 27.0899L28.3525 16.8499L26.7675 15.6301ZM19.68 25.48H15.52V27.48H19.68V25.48ZM16.4391 26.0861L12.1191 16.0061L10.2809 16.7939L14.6009 26.8739L16.4391 26.0861ZM10.2194 16.2039L7.69942 28.8039L9.66058 29.1961L12.1806 16.5961L10.2194 16.2039ZM8.68 28H0.08V30H8.68V28ZM1.06058 29.1961L6.66058 1.19611L4.69942 0.803882L-0.900581 28.8039L1.06058 29.1961ZM5.68 2H13.36V-1.90735e-06H5.68V2ZM12.4343 1.37824L18.5143 16.2582L20.3657 15.5018L14.2857 0.621753L12.4343 1.37824ZM20.2256 16.4988L31.9456 1.61875L30.3744 0.381244L18.6544 15.2612L20.2256 16.4988ZM31.16 2H39.2V-1.90735e-06H31.16V2ZM58.8841 18.84L58.1008 18.2183L57.9498 18.4085L57.9029 18.6469L58.8841 18.84ZM56.8841 29V30H57.7064L57.8652 29.1931L56.8841 29ZM47.4441 29L46.4632 28.8054L46.2261 30H47.4441V29ZM49.4841 18.72L50.4649 18.9146L50.5222 18.6261L50.4141 18.3526L49.4841 18.72ZM42.4841 0.999998V-1.90735e-06H41.0138L41.554 1.3674L42.4841 0.999998ZM51.9641 0.999998L52.8949 0.634584L52.6458 -1.90735e-06H51.9641V0.999998ZM55.7641 10.68L54.8332 11.0454L55.4624 12.6482L56.5427 11.3074L55.7641 10.68ZM63.5641 0.999998V-1.90735e-06H63.0856L62.7854 0.37256L63.5641 0.999998ZM73.0441 0.999998L73.8273 1.62169L75.1145 -1.90735e-06H73.0441V0.999998ZM57.9029 18.6469L55.9029 28.8069L57.8652 29.1931L59.8652 19.0331L57.9029 18.6469ZM56.8841 28H47.4441V30H56.8841V28ZM48.4249 29.1946L50.4649 18.9146L48.5032 18.5254L46.4632 28.8054L48.4249 29.1946ZM50.4141 18.3526L43.4141 0.632593L41.554 1.3674L48.554 19.0874L50.4141 18.3526ZM42.4841 2H51.9641V-1.90735e-06H42.4841V2ZM51.0332 1.36541L54.8332 11.0454L56.6949 10.3146L52.8949 0.634584L51.0332 1.36541ZM56.5427 11.3074L64.3427 1.62744L62.7854 0.37256L54.9854 10.0526L56.5427 11.3074ZM63.5641 2H73.0441V-1.90735e-06H63.5641V2ZM72.2608 0.378306L58.1008 18.2183L59.6673 19.4617L73.8273 1.62169L72.2608 0.378306Z" fill="#222222"/>
</svg>
